<svg xmlns="http://www.w3.org/2000/svg" xmlns:xlink="http://www.w3.org/1999/xlink" width="500" zoomAndPan="magnify" viewBox="0 0 375 374.999991" height="500" preserveAspectRatio="xMidYMid meet" version="1.0"><defs><clipPath id="13427d7e67"><path d="M 233 203.703125 L 374.714844 203.703125 L 374.714844 305 L 233 305 Z M 233 203.703125 " clip-rule="nonzero"/></clipPath><clipPath id="944464948b"><path d="M 238.382812 218 L 374.714844 218 L 374.714844 308 L 238.382812 308 Z M 238.382812 218 " clip-rule="nonzero"/></clipPath><clipPath id="70d73caa46"><path d="M 199 298.34375 L 251 298.34375 L 251 325.859375 L 199 325.859375 Z M 199 298.34375 " clip-rule="nonzero"/></clipPath></defs><path fill="#ffd1c1" d="M 361.304688 169.0625 C 313.871094 76.695312 290.148438 30.515625 290.148438 30.515625 C 273.277344 66.410156 200.582031 70.042969 171.714844 114.421875 C 204.207031 238.660156 220.453125 300.78125 220.453125 300.78125 C 265.082031 226.488281 335.21875 224.664062 361.304688 169.0625 " fill-opacity="1" fill-rule="evenodd"/><path fill="#4f1f15" d="M 291.445312 29.847656 L 362.605469 168.394531 C 362.800781 168.785156 362.824219 169.253906 362.628906 169.679688 C 349.9375 196.730469 327.128906 211.136719 301.84375 227.105469 C 274.742188 244.21875 244.753906 263.160156 221.707031 301.53125 C 221.515625 301.847656 221.207031 302.09375 220.816406 302.195312 C 220.042969 302.394531 219.246094 301.925781 219.042969 301.144531 C 203.21875 240.644531 188.484375 173.929688 170.304688 114.789062 C 170.207031 114.40625 170.261719 113.984375 170.496094 113.628906 C 185.519531 90.523438 212.039062 78.390625 236.632812 67.132812 C 259.5625 56.640625 280.792969 46.925781 288.804688 29.945312 C 288.933594 29.640625 289.164062 29.382812 289.480469 29.21875 C 290.199219 28.847656 291.078125 29.128906 291.445312 29.847656 Z M 359.679688 169.089844 L 290.144531 33.695312 C 280.902344 50.082031 260.164062 59.570312 237.84375 69.785156 C 213.8125 80.785156 187.921875 92.632812 173.289062 114.6875 L 221 297.105469 C 244.148438 260.09375 273.605469 241.488281 300.292969 224.632812 C 324.992188 209.035156 347.292969 194.945312 359.679688 169.089844 " fill-opacity="1" fill-rule="evenodd"/><path fill="#ffd1c1" d="M 171.714844 114.421875 C 204.207031 238.660156 220.453125 300.78125 220.453125 300.78125 C 190.328125 252.371094 113.035156 267.375 76.675781 250.53125 C 76.675781 250.53125 61.730469 192.640625 31.835938 76.859375 C 75.726562 104.359375 128.128906 75.066406 171.714844 114.421875 " fill-opacity="1" fill-rule="evenodd"/><path fill="#4f1f15" d="M 217.03125 293.441406 L 170.417969 115.226562 C 147.042969 94.328125 120.949219 93.351562 95.050781 92.386719 C 74.203125 91.613281 53.472656 90.839844 34.132812 79.917969 L 77.910156 249.492188 C 90.265625 255.015625 107.414062 256.980469 125.765625 259.089844 C 158.882812 262.882812 195.847656 267.128906 217.03125 293.441406 Z M 173.144531 114.140625 L 221.863281 300.414062 C 222.066406 301.195312 221.597656 301.992188 220.816406 302.195312 C 220.191406 302.359375 219.542969 302.078125 219.214844 301.550781 C 199.914062 270.53125 160.476562 266.011719 125.4375 261.988281 C 106.535156 259.824219 88.890625 257.800781 76.066406 251.859375 C 75.628906 251.65625 75.339844 251.265625 75.246094 250.824219 L 30.425781 77.226562 C 30.222656 76.449219 30.691406 75.652344 31.46875 75.449219 C 31.898438 75.339844 32.335938 75.429688 32.667969 75.664062 C 52.199219 87.875 73.609375 88.671875 95.152344 89.472656 C 121.703125 90.457031 148.457031 91.457031 172.691406 113.335938 C 172.9375 113.558594 173.089844 113.839844 173.144531 114.140625 " fill-opacity="1" fill-rule="evenodd"/><path fill="#ffd1c1" d="M 220.011719 299.089844 L 221.550781 301.273438 C 219.886719 301.6875 218.257812 302.230469 216.695312 302.910156 L 216.695312 302.90625 C 209.6875 292.785156 200.175781 286.03125 189.363281 281.351562 C 153.558594 265.867188 109.167969 273.089844 73.019531 255.898438 C 73.019531 255.898438 56.289062 198.578125 22.820312 83.933594 L 34.496094 87.15625 L 76.675781 250.53125 C 113.035156 267.375 190.328125 252.371094 220.453125 300.78125 L 220.011719 299.089844 " fill-opacity="1" fill-rule="evenodd"/><path fill="#4f1f15" d="M 217.214844 301.125 C 217.679688 300.941406 218.144531 300.769531 218.613281 300.613281 C 199.101562 270.441406 160.121094 265.96875 125.4375 261.988281 C 106.535156 259.824219 88.890625 257.800781 76.066406 251.859375 C 75.683594 251.679688 75.378906 251.339844 75.265625 250.898438 L 33.296875 88.34375 L 24.949219 86.035156 L 74.234375 254.859375 C 92.554688 263.410156 113.105469 265.734375 133.53125 268.046875 C 153.039062 270.25 172.4375 272.441406 189.9375 280.011719 C 195.457031 282.402344 200.644531 285.316406 205.339844 288.925781 C 209.769531 292.328125 213.769531 296.347656 217.214844 301.125 Z M 221.207031 298.253906 L 222.746094 300.429688 C 222.921875 300.683594 223.007812 300.976562 223.007812 301.273438 L 223.011719 301.273438 C 223.011719 301.992188 222.488281 302.59375 221.800781 302.710938 C 221.035156 302.90625 220.28125 303.128906 219.546875 303.375 C 218.761719 303.640625 218.003906 303.933594 217.273438 304.25 C 216.621094 304.53125 215.878906 304.300781 215.496094 303.738281 C 212.082031 298.808594 208.058594 294.699219 203.570312 291.25 C 199.058594 287.78125 194.078125 284.980469 188.785156 282.6875 C 171.703125 275.300781 152.511719 273.128906 133.210938 270.949219 C 112.320312 268.589844 91.304688 266.210938 72.398438 257.222656 C 71.980469 257.023438 71.699219 256.652344 71.597656 256.238281 L 21.421875 84.339844 C 21.195312 83.566406 21.640625 82.753906 22.414062 82.535156 C 22.679688 82.453125 22.957031 82.457031 23.207031 82.527344 L 34.886719 85.75 C 35.417969 85.898438 35.804688 86.332031 35.917969 86.835938 L 77.910156 249.492188 C 90.265625 255.015625 107.414062 256.980469 125.765625 259.089844 C 160.574219 263.078125 199.625 267.5625 220.140625 297.640625 C 220.566406 297.679688 220.957031 297.902344 221.207031 298.253906 " fill-opacity="1" fill-rule="evenodd"/><path fill="#ffd1c1" d="M 212.660156 305.039062 C 179.257812 270.625 104.066406 280.929688 62.050781 258.460938 L 13.796875 93.082031 L 26.253906 95.699219 L 73.019531 255.898438 C 109.167969 273.089844 153.5625 265.867188 189.363281 281.351562 C 200.175781 286.03125 209.6875 292.785156 216.695312 302.90625 C 216.53125 302.945312 212.832031 304.808594 212.660156 305.039062 " fill-opacity="1" fill-rule="evenodd"/><path fill="#4f1f15" d="M 128.136719 273.863281 C 160.488281 278.777344 193.253906 283.753906 212.890625 303.199219 L 213.421875 302.910156 C 213.765625 302.726562 214.144531 302.539062 214.507812 302.355469 C 211.316406 298.03125 207.632812 294.371094 203.570312 291.25 C 199.070312 287.789062 194.089844 284.988281 188.785156 282.695312 L 188.789062 282.6875 C 171.703125 275.300781 152.511719 273.132812 133.210938 270.949219 C 112.320312 268.589844 91.304688 266.210938 72.398438 257.222656 C 72.03125 257.046875 71.738281 256.726562 71.621094 256.304688 L 25.097656 96.949219 L 15.882812 95.007812 L 63.273438 257.457031 C 80.863281 266.683594 104.386719 270.253906 128.136719 273.863281 Z M 211.613281 306.054688 C 192.769531 286.640625 160.023438 281.667969 127.699219 276.757812 C 103.472656 273.074219 79.472656 269.429688 61.363281 259.746094 C 61.003906 259.554688 60.757812 259.230469 60.652344 258.867188 L 12.402344 93.488281 C 12.175781 92.714844 12.621094 91.902344 13.394531 91.679688 C 13.628906 91.613281 13.871094 91.605469 14.09375 91.652344 L 26.550781 94.273438 C 27.121094 94.390625 27.542969 94.824219 27.671875 95.355469 L 74.234375 254.859375 C 92.554688 263.410156 113.105469 265.734375 133.535156 268.046875 C 153.039062 270.25 172.4375 272.441406 189.9375 280.011719 L 189.9375 280.007812 C 195.449219 282.390625 200.632812 285.308594 205.339844 288.925781 C 210.0625 292.550781 214.300781 296.886719 217.894531 302.078125 C 218.351562 302.742188 218.183594 303.648438 217.519531 304.109375 C 217.359375 304.222656 217.179688 304.296875 216.996094 304.335938 C 216.980469 304.339844 215.816406 304.949219 214.78125 305.496094 C 214.199219 305.804688 213.914062 305.800781 213.832031 305.90625 C 213.351562 306.554688 212.441406 306.691406 211.792969 306.210938 C 211.730469 306.160156 211.671875 306.109375 211.613281 306.054688 " fill-opacity="1" fill-rule="evenodd"/><path fill="#ffd1c1" d="M 208.78125 308.007812 L 208.789062 308.007812 C 210.246094 306.664062 211.847656 305.492188 213.546875 304.5 C 213.066406 304.761719 212.710938 304.96875 212.660156 305.039062 C 179.257812 270.625 104.066406 280.929688 62.050781 258.460938 L 16.476562 102.257812 L 9.5 100.734375 C 9.5 100.734375 24.121094 156.347656 53.363281 267.578125 C 78.015625 286.65625 168.503906 273.5 208.78125 308.007812 " fill-opacity="1" fill-rule="evenodd"/><path fill="#4f1f15" d="M 208.761719 306.085938 C 209.230469 305.691406 209.710938 305.316406 210.207031 304.953125 L 210.378906 304.824219 C 191.359375 286.425781 159.332031 281.558594 127.699219 276.757812 C 103.472656 273.074219 79.472656 269.429688 61.363281 259.746094 C 61.003906 259.554688 60.757812 259.230469 60.652344 258.867188 L 15.320312 103.5 L 11.515625 102.667969 L 54.648438 266.714844 C 64.953125 274.324219 86.859375 276.570312 111.65625 279.109375 C 145.707031 282.601562 185.125 286.640625 208.761719 306.085938 Z M 208.617188 309.457031 L 208.609375 309.457031 C 208.332031 309.425781 208.0625 309.308594 207.832031 309.117188 C 185.007812 289.558594 145.460938 285.507812 111.359375 282.015625 C 85.855469 279.402344 63.351562 277.097656 52.53125 268.773438 C 52.253906 268.582031 52.046875 268.296875 51.953125 267.949219 L 8.109375 101.179688 C 8.035156 100.941406 8.015625 100.683594 8.070312 100.425781 C 8.242188 99.636719 9.019531 99.132812 9.808594 99.304688 L 16.785156 100.828125 L 16.785156 100.832031 C 17.289062 100.941406 17.71875 101.320312 17.875 101.851562 L 63.273438 257.457031 C 80.863281 266.683594 104.386719 270.253906 128.136719 273.863281 C 160.488281 278.777344 193.25 283.753906 212.890625 303.195312 C 213.574219 302.851562 214.421875 303.09375 214.808594 303.769531 C 215.214844 304.464844 214.976562 305.359375 214.277344 305.765625 C 214.015625 305.917969 213.757812 306.074219 213.5 306.238281 L 213.386719 306.304688 C 212.890625 306.621094 212.40625 306.957031 211.929688 307.308594 C 211.199219 307.84375 210.5 308.421875 209.820312 309.039062 C 209.515625 309.34375 209.078125 309.511719 208.617188 309.457031 " fill-opacity="1" fill-rule="evenodd"/><path fill="#ffd1c1" d="M 210.320312 306.703125 C 210.445312 306.601562 210.574219 306.5 210.703125 306.402344 C 210.574219 306.5 210.445312 306.601562 210.320312 306.703125 Z M 203.949219 313.972656 C 172.058594 287.703125 77.34375 291.402344 46.90625 272.820312 C 19.285156 161.105469 5.476562 105.246094 5.476562 105.246094 L 11.15625 107.039062 L 53.363281 267.578125 C 78.015625 286.65625 168.503906 273.5 208.78125 308.007812 L 208.789062 308.007812 C 206.925781 309.714844 205.292969 311.703125 203.949219 313.972656 " fill-opacity="1" fill-rule="evenodd"/><path fill="#4f1f15" d="M 115.136719 287.609375 C 149.074219 292.546875 185.191406 297.8125 203.585938 311.824219 C 204.035156 311.160156 204.511719 310.515625 205.015625 309.894531 C 205.527344 309.265625 206.054688 308.664062 206.609375 308.09375 C 183.613281 289.417969 144.859375 285.449219 111.359375 282.015625 C 85.855469 279.402344 63.351562 277.097656 52.53125 268.773438 C 52.253906 268.582031 52.046875 268.296875 51.953125 267.949219 L 9.953125 108.195312 L 7.515625 107.425781 L 48.175781 271.878906 C 61.679688 279.820312 87.6875 283.609375 115.136719 287.609375 Z M 202.96875 315.050781 C 185.632812 300.824219 149.046875 295.496094 114.722656 290.496094 C 86.621094 286.40625 60.011719 282.53125 46.144531 274.066406 C 45.800781 273.855469 45.578125 273.53125 45.488281 273.171875 L 4.058594 105.59375 C 3.867188 104.8125 4.34375 104.023438 5.128906 103.828125 C 5.398438 103.761719 5.667969 103.773438 5.914062 103.855469 L 11.597656 105.644531 C 12.121094 105.8125 12.488281 106.253906 12.589844 106.757812 L 54.648438 266.714844 C 64.953125 274.324219 86.859375 276.570312 111.65625 279.109375 C 145.855469 282.617188 185.46875 286.675781 209.070312 306.339844 C 209.109375 306.058594 209.234375 305.789062 209.433594 305.566406 L 209.421875 305.550781 L 209.8125 305.246094 L 209.820312 305.246094 C 210.457031 304.753906 211.371094 304.878906 211.859375 305.515625 C 212.351562 306.148438 212.226562 307.0625 211.597656 307.554688 L 211.597656 307.558594 L 211.214844 307.851562 L 211.203125 307.835938 C 210.90625 307.996094 210.566406 308.042969 210.25 307.988281 C 210.25 308.046875 210.246094 308.113281 210.238281 308.179688 C 210.195312 308.5625 210.003906 308.894531 209.730469 309.125 C 208.855469 309.933594 208.03125 310.804688 207.277344 311.734375 C 206.53125 312.65625 205.839844 313.652344 205.207031 314.714844 C 204.800781 315.40625 203.902344 315.640625 203.207031 315.230469 C 203.121094 315.179688 203.039062 315.117188 202.96875 315.050781 " fill-opacity="1" fill-rule="evenodd"/><path fill="#4f7978" d="M 200.71875 322.300781 L 200.714844 322.304688 C 183.828125 303.839844 79.90625 293.917969 43.914062 281.785156 C 43.914062 281.785156 30.917969 224.464844 2.003906 108.84375 L 6.710938 110.246094 L 46.90625 272.820312 C 77.34375 291.402344 172.058594 287.703125 203.949219 313.972656 C 202.5 316.425781 201.390625 319.203125 200.71875 322.300781 " fill-opacity="1" fill-rule="evenodd"/><path fill="#4f1f15" d="M 105.074219 293.617188 C 144.007812 300.785156 186.453125 308.59375 199.917969 319.578125 C 200.136719 318.84375 200.386719 318.128906 200.660156 317.433594 C 201.078125 316.347656 201.550781 315.316406 202.074219 314.335938 C 184.394531 300.644531 148.46875 295.414062 114.722656 290.496094 C 86.640625 286.410156 60.050781 282.539062 46.175781 274.085938 C 45.84375 273.890625 45.589844 273.570312 45.488281 273.171875 L 5.496094 111.410156 L 4.035156 110.972656 C 30.582031 217.179688 43.5 273.4375 45.152344 280.65625 C 58.636719 285.074219 81.191406 289.222656 105.074219 293.617188 Z M 201.429688 323.574219 C 200.863281 323.898438 200.128906 323.808594 199.65625 323.3125 L 199.597656 323.242188 C 189.289062 312.085938 145.007812 303.9375 104.550781 296.488281 C 80.09375 291.992188 57.03125 287.746094 43.449219 283.167969 C 42.949219 283 42.597656 282.585938 42.488281 282.105469 C 42.449219 281.9375 29.519531 224.90625 0.585938 109.199219 C 0.386719 108.417969 0.863281 107.621094 1.648438 107.425781 C 1.933594 107.351562 2.222656 107.371094 2.480469 107.464844 L 7.125 108.847656 C 7.636719 108.996094 8.007812 109.410156 8.128906 109.894531 L 48.175781 271.878906 C 61.679688 279.820312 87.6875 283.609375 115.136719 287.609375 C 149.886719 292.664062 186.925781 298.058594 204.878906 312.84375 C 205.4375 313.308594 205.566406 314.105469 205.207031 314.714844 C 204.503906 315.898438 203.894531 317.15625 203.378906 318.484375 C 202.875 319.769531 202.464844 321.144531 202.144531 322.609375 C 202.054688 323.039062 201.785156 323.382812 201.429688 323.574219 " fill-opacity="1" fill-rule="evenodd"/><path fill="#ffd1c1" d="M 359.023438 173.570312 L 364.972656 184.09375 C 327.09375 230.585938 253.222656 251.640625 227.207031 300.382812 C 225.117188 300.527344 223.046875 300.871094 221.039062 301.410156 L 220.800781 300.214844 C 264.199219 228.539062 331.40625 224.679688 359.023438 173.570312 " fill-opacity="1" fill-rule="evenodd"/><path fill="#4f1f15" d="M 363.214844 183.941406 L 359.03125 176.546875 C 345.882812 199.28125 324.890625 212.542969 301.839844 227.105469 C 275.230469 243.914062 245.84375 262.484375 222.96875 299.46875 C 223.261719 299.410156 223.558594 299.359375 223.855469 299.308594 C 224.671875 299.175781 225.488281 299.066406 226.308594 298.988281 C 240.816406 272.414062 269.210938 254.105469 298.210938 235.410156 C 322 220.074219 346.199219 204.472656 363.214844 183.941406 Z M 360.324219 172.902344 L 366.242188 183.375 C 366.558594 183.925781 366.46875 184.601562 366.074219 185.054688 C 348.734375 206.316406 324.046875 222.230469 299.789062 237.871094 C 270.847656 256.523438 242.519531 274.789062 228.496094 301.070312 C 228.246094 301.53125 227.789062 301.804688 227.300781 301.835938 L 227.304688 301.839844 C 226.296875 301.914062 225.300781 302.027344 224.324219 302.191406 C 223.347656 302.351562 222.371094 302.5625 221.40625 302.820312 C 220.632812 303.023438 219.832031 302.558594 219.625 301.777344 L 219.367188 300.496094 C 219.289062 300.078125 219.390625 299.667969 219.621094 299.351562 C 242.980469 260.839844 273.070312 241.828125 300.289062 224.632812 C 323.757812 209.808594 345.058594 196.351562 357.742188 172.878906 C 358.121094 172.167969 359.007812 171.902344 359.71875 172.285156 C 359.988281 172.429688 360.195312 172.648438 360.324219 172.902344 " fill-opacity="1" fill-rule="evenodd"/><path fill="#ffd1c1" d="M 227.203125 300.382812 C 252.785156 252.453125 324.640625 231.296875 363.050781 186.398438 L 366.070312 192.632812 C 335.367188 235.039062 256.609375 253.082031 230.523438 300.316406 C 229.414062 300.285156 228.308594 300.308594 227.203125 300.382812 " fill-opacity="1" fill-rule="evenodd"/><path fill="#4f1f15" d="M 299.789062 237.867188 C 275.527344 253.507812 251.695312 268.871094 236.355469 288.914062 C 251.867188 269.089844 276.648438 254.605469 301.210938 240.253906 C 325.796875 225.886719 350.152344 211.652344 364.371094 192.476562 L 362.699219 189.023438 C 345.613281 208.324219 322.511719 223.21875 299.789062 237.867188 Z M 225.972656 299.597656 C 240.378906 272.691406 268.984375 254.25 298.210938 235.410156 C 321.414062 220.453125 345.007812 205.242188 361.941406 185.449219 C 362.464844 184.835938 363.386719 184.769531 364 185.289062 C 364.152344 185.425781 364.277344 185.585938 364.363281 185.761719 L 367.382812 192 C 367.621094 192.496094 367.554688 193.070312 367.25 193.488281 C 352.746094 213.523438 327.828125 228.082031 302.683594 242.78125 C 274.253906 259.390625 245.523438 276.179688 231.804688 301.015625 C 231.515625 301.542969 230.957031 301.820312 230.398438 301.769531 C 229.890625 301.753906 229.390625 301.753906 228.886719 301.765625 C 228.398438 301.777344 227.871094 301.800781 227.300781 301.839844 C 226.5 301.894531 225.800781 301.285156 225.75 300.480469 C 225.726562 300.160156 225.8125 299.855469 225.972656 299.597656 " fill-opacity="1" fill-rule="evenodd"/><path fill="#ffd1c1" d="M 364.03125 195.308594 L 364.035156 195.316406 C 366.367188 199.429688 368.382812 202.996094 368.382812 202.996094 C 336.054688 243.132812 260.011719 256.613281 238.144531 301.410156 C 235.726562 300.769531 233.238281 300.40625 230.757812 300.320312 C 231.117188 299.785156 231.421875 299.191406 231.664062 298.539062 C 231.796875 298.167969 232.0625 297.722656 232.363281 297.195312 C 259.511719 253.246094 332.757812 234.894531 364.03125 195.308594 " fill-opacity="1" fill-rule="evenodd"/><path fill="#4f1f15" d="M 366.621094 202.84375 L 363.816406 197.886719 C 349 215.707031 325.941406 229.183594 302.6875 242.777344 C 275.453125 258.691406 247.949219 274.773438 233.628906 297.917969 L 233.484375 298.164062 C 233.296875 298.503906 233.125 298.800781 233.042969 299.011719 C 233.601562 299.066406 234.148438 299.132812 234.695312 299.214844 C 235.585938 299.34375 236.472656 299.511719 237.359375 299.714844 C 249.792969 275.433594 277.730469 260.40625 305.867188 245.277344 C 328.917969 232.882812 352.101562 220.410156 366.621094 202.84375 Z M 365.3125 194.605469 C 366.796875 196.921875 368.269531 199.835938 369.652344 202.277344 C 369.957031 202.8125 369.886719 203.457031 369.519531 203.914062 L 369.515625 203.917969 C 354.664062 222.347656 330.886719 235.136719 307.25 247.847656 C 279.125 262.972656 251.203125 277.992188 239.457031 302.050781 C 239.132812 302.710938 238.375 303.019531 237.695312 302.800781 C 236.574219 302.507812 235.433594 302.277344 234.273438 302.105469 C 233.070312 301.929688 231.878906 301.820312 230.703125 301.777344 C 229.898438 301.75 229.269531 301.074219 229.296875 300.269531 C 229.308594 299.980469 229.402344 299.710938 229.554688 299.488281 C 229.695312 299.285156 229.828125 299.058594 229.960938 298.796875 C 230.082031 298.550781 230.195312 298.296875 230.292969 298.035156 C 230.441406 297.625 230.675781 297.210938 230.953125 296.726562 L 231.09375 296.472656 L 231.164062 296.363281 C 245.878906 272.59375 273.6875 256.339844 301.214844 240.25 C 324.964844 226.367188 348.507812 212.605469 362.890625 194.40625 C 363.390625 193.773438 364.304688 193.667969 364.933594 194.167969 C 365.089844 194.289062 365.210938 194.4375 365.304688 194.597656 L 365.3125 194.605469 " fill-opacity="1" fill-rule="evenodd"/><path fill="#ffd1c1" d="M 236.007812 300.921875 C 236.15625 300.949219 236.304688 300.976562 236.453125 301.007812 C 236.304688 300.976562 236.15625 300.949219 236.007812 300.921875 Z M 234.917969 300.726562 C 235.078125 300.753906 235.238281 300.78125 235.402344 300.808594 C 235.238281 300.78125 235.078125 300.753906 234.917969 300.726562 Z M 243.15625 303.167969 L 243.152344 303.167969 C 241.53125 302.445312 239.851562 301.859375 238.144531 301.410156 C 259.609375 257.429688 333.292969 243.632812 366.566406 205.164062 L 373.257812 214.824219 C 343.746094 248 272.933594 257.921875 243.15625 303.167969 " fill-opacity="1" fill-rule="evenodd"/><g clip-path="url(#13427d7e67)"><path fill="#4f1f15" d="M 241.175781 300.816406 C 241.660156 300.980469 242.140625 301.164062 242.621094 301.359375 C 259.652344 276.277344 289.023438 262.117188 316.8125 248.730469 C 338.167969 238.4375 358.570312 228.605469 371.398438 214.703125 L 366.425781 207.523438 C 351.488281 224.050781 329.308594 235.980469 307.246094 247.847656 C 279.734375 262.644531 252.414062 277.339844 240.246094 300.5 C 240.558594 300.601562 240.867188 300.703125 241.175781 300.816406 Z M 243.664062 304.539062 C 243.289062 304.675781 242.898438 304.652344 242.558594 304.503906 C 241.789062 304.15625 241.011719 303.847656 240.21875 303.570312 C 239.421875 303.289062 238.605469 303.039062 237.773438 302.820312 C 237.421875 302.726562 237.132812 302.515625 236.945312 302.234375 C 236.710938 302.371094 236.445312 302.4375 236.167969 302.425781 L 236.164062 302.4375 L 235.726562 302.355469 L 235.730469 302.335938 C 235.671875 302.3125 235.617188 302.289062 235.566406 302.261719 C 235.429688 302.277344 235.289062 302.273438 235.148438 302.246094 L 234.683594 302.167969 C 233.886719 302.039062 233.347656 301.285156 233.476562 300.492188 C 233.605469 299.699219 234.355469 299.15625 235.148438 299.285156 L 235.652344 299.367188 C 235.804688 299.394531 235.949219 299.445312 236.078125 299.511719 C 236.144531 299.507812 236.210938 299.503906 236.28125 299.507812 L 236.285156 299.484375 L 236.746094 299.578125 L 236.742188 299.59375 C 236.9375 299.667969 237.109375 299.78125 237.253906 299.921875 C 249.632812 275.519531 277.648438 260.449219 305.867188 245.277344 C 328.3125 233.203125 350.890625 221.058594 365.464844 204.210938 C 365.992188 203.601562 366.910156 203.535156 367.519531 204.0625 C 367.625 204.152344 367.714844 204.25 367.785156 204.363281 L 374.457031 213.996094 C 374.847656 214.5625 374.785156 215.304688 374.347656 215.796875 C 361.195312 230.582031 340.136719 240.730469 318.082031 251.359375 C 290.265625 264.757812 260.847656 278.9375 244.371094 303.96875 C 244.195312 304.242188 243.945312 304.429688 243.664062 304.539062 " fill-opacity="1" fill-rule="evenodd"/></g><path fill="#4f7978" d="M 240.863281 302.246094 C 240.660156 302.179688 240.460938 302.105469 240.265625 302.042969 L 240.261719 302.042969 C 240.460938 302.109375 240.660156 302.179688 240.863281 302.246094 Z M 241.933594 302.65625 C 241.679688 302.550781 241.421875 302.453125 241.164062 302.359375 C 241.421875 302.453125 241.679688 302.550781 241.933594 302.65625 Z M 242.984375 303.097656 C 242.707031 302.976562 242.429688 302.855469 242.152344 302.742188 C 242.429688 302.855469 242.707031 302.976562 242.984375 303.097656 Z M 248.925781 306.539062 C 262.710938 289.195312 282.136719 275.496094 307.21875 265.4375 C 346.730469 246.46875 368.664062 233.707031 373.015625 227.144531 L 368.433594 219.71875 C 336.636719 249.097656 271.417969 260.226562 243.15625 303.167969 L 243.152344 303.167969 C 245.179688 304.078125 247.117188 305.199219 248.925781 306.539062 " fill-opacity="1" fill-rule="evenodd"/><g clip-path="url(#944464948b)"><path fill="#4f1f15" d="M 274.675781 284.453125 C 265.074219 291.21875 256.871094 298.886719 250.070312 307.449219 C 249.582031 308.058594 248.691406 308.183594 248.058594 307.714844 C 247.207031 307.085938 246.324219 306.5 245.414062 305.972656 C 244.480469 305.425781 243.527344 304.933594 242.558594 304.503906 C 242.507812 304.476562 242.457031 304.449219 242.40625 304.421875 L 242.398438 304.433594 L 242 304.261719 L 241.605469 304.097656 L 241.613281 304.078125 C 241.535156 304.0625 241.464844 304.039062 241.390625 304.007812 L 240.660156 303.730469 L 240.675781 303.695312 C 240.574219 303.679688 240.476562 303.65625 240.382812 303.625 L 239.792969 303.425781 C 239.03125 303.167969 238.621094 302.335938 238.882812 301.574219 C 239.136719 300.808594 239.964844 300.398438 240.730469 300.660156 L 241.03125 300.761719 C 241.101562 300.785156 241.007812 300.75 241.199219 300.820312 L 241.351562 300.875 C 241.460938 300.917969 241.558594 300.96875 241.652344 301.023438 L 241.664062 300.984375 C 241.941406 301.089844 242.207031 301.191406 242.476562 301.296875 L 242.617188 301.363281 C 259.644531 276.277344 289.019531 262.117188 316.8125 248.726562 C 336.085938 239.4375 354.59375 230.519531 367.449219 218.644531 C 367.515625 218.582031 367.589844 218.523438 367.667969 218.476562 C 368.355469 218.050781 369.253906 218.265625 369.675781 218.953125 L 374.207031 226.304688 C 374.542969 226.78125 374.570312 227.4375 374.230469 227.949219 C 369.734375 234.730469 347.628906 247.652344 307.921875 266.71875 C 307.867188 266.746094 307.816406 266.773438 307.757812 266.792969 C 295.332031 271.78125 284.300781 277.664062 274.675781 284.453125 Z M 248.648438 304.558594 C 255.453125 296.207031 263.570312 288.710938 273 282.0625 C 282.800781 275.148438 294.019531 269.160156 306.660156 264.09375 C 344.429688 245.953125 365.960938 233.613281 371.253906 227.070312 L 368.113281 221.972656 C 355.035156 233.546875 336.921875 242.277344 318.078125 251.355469 C 290.785156 264.511719 261.941406 278.410156 245.308594 302.585938 C 245.84375 302.855469 246.363281 303.144531 246.878906 303.445312 C 247.476562 303.792969 248.066406 304.164062 248.648438 304.558594 " fill-opacity="1" fill-rule="evenodd"/></g><path fill="#4f7978" d="M 224.097656 300.75 C 233.34375 299.398438 241.621094 301.328125 248.925781 306.539062 C 248.925781 306.539062 248.839844 307.945312 248.667969 310.75 C 227.984375 301.648438 210.320312 306.703125 205.351562 324.410156 C 205.351562 324.410156 203.804688 323.707031 200.714844 322.304688 C 204.214844 309.953125 212.011719 302.769531 224.097656 300.75 " fill-opacity="1" fill-rule="evenodd"/><g clip-path="url(#70d73caa46)"><path fill="#4f1f15" d="M 236.910156 302.605469 C 232.953125 301.683594 228.753906 301.546875 224.316406 302.191406 C 213.25 304.050781 205.96875 310.488281 202.476562 321.503906 L 204.445312 322.394531 C 204.738281 321.523438 205.0625 320.691406 205.414062 319.886719 C 208.332031 313.246094 213.257812 308.753906 219.550781 306.503906 C 225.746094 304.289062 233.242188 304.277344 241.40625 306.574219 C 243.347656 307.117188 245.332031 307.796875 247.339844 308.605469 L 247.417969 307.265625 C 244.117188 305.027344 240.613281 303.472656 236.910156 302.605469 Z M 223.890625 299.300781 C 228.695312 298.601562 233.253906 298.753906 237.570312 299.757812 C 241.890625 300.769531 245.960938 302.632812 249.773438 305.351562 C 250.195312 305.65625 250.40625 306.144531 250.378906 306.625 L 250.125 310.835938 C 250.078125 311.636719 249.386719 312.253906 248.582031 312.207031 C 248.40625 312.195312 248.238281 312.152344 248.082031 312.085938 C 245.535156 310.96875 243.039062 310.066406 240.617188 309.386719 C 233.050781 307.257812 226.160156 307.246094 220.53125 309.261719 C 214.996094 311.238281 210.660156 315.203125 208.089844 321.058594 L 208.085938 321.0625 C 207.570312 322.238281 207.125 323.484375 206.757812 324.800781 C 206.539062 325.582031 205.734375 326.035156 204.957031 325.8125 C 204.886719 325.792969 204.816406 325.769531 204.753906 325.742188 L 200.113281 323.640625 C 199.429688 323.332031 199.097656 322.5625 199.320312 321.863281 C 203 308.949219 211.179688 301.429688 223.855469 299.308594 L 223.890625 299.300781 " fill-opacity="1" fill-rule="evenodd"/></g><path fill="#4f1f15" d="M 49.21875 96.273438 C 48.75 96.011719 48.582031 95.417969 48.84375 94.949219 C 49.105469 94.480469 49.699219 94.3125 50.167969 94.574219 C 57.804688 98.867188 72.773438 99.449219 89.816406 100.113281 C 116.824219 101.164062 148.976562 102.417969 166.601562 118.984375 C 166.992188 119.355469 167.011719 119.96875 166.640625 120.363281 C 166.273438 120.753906 165.660156 120.773438 165.269531 120.402344 C 148.167969 104.332031 116.417969 103.097656 89.746094 102.054688 C 72.449219 101.382812 57.25 100.785156 49.21875 96.273438 " fill-opacity="1" fill-rule="evenodd"/><path fill="#4f1f15" d="M 51.289062 104.933594 C 50.820312 104.671875 50.652344 104.074219 50.914062 103.605469 C 51.179688 103.136719 51.773438 102.96875 52.242188 103.234375 C 59.875 107.523438 74.84375 108.109375 91.886719 108.769531 C 118.894531 109.824219 151.042969 111.078125 168.671875 127.644531 C 169.0625 128.015625 169.082031 128.632812 168.714844 129.019531 C 168.34375 129.414062 167.730469 129.433594 167.339844 129.0625 C 150.238281 112.992188 118.492188 111.753906 91.816406 110.714844 C 74.519531 110.039062 59.324219 109.445312 51.289062 104.933594 " fill-opacity="1" fill-rule="evenodd"/><path fill="#4f1f15" d="M 52.648438 115.0625 C 52.175781 114.8125 51.996094 114.222656 52.25 113.75 C 52.5 113.277344 53.089844 113.097656 53.5625 113.347656 C 61.1875 117.414062 76.15625 117.570312 93.199219 117.746094 C 120.210938 118.023438 152.367188 118.359375 170 134.429688 C 170.402344 134.789062 170.425781 135.410156 170.066406 135.804688 C 169.703125 136.203125 169.085938 136.230469 168.691406 135.871094 C 151.597656 120.296875 119.855469 119.964844 93.183594 119.691406 C 75.886719 119.511719 60.695312 119.355469 52.648438 115.0625 " fill-opacity="1" fill-rule="evenodd"/><path fill="#4f1f15" d="M 54.238281 122.507812 C 53.761719 122.25 53.589844 121.660156 53.84375 121.1875 C 54.09375 120.714844 54.683594 120.535156 55.160156 120.792969 C 62.792969 124.917969 77.757812 125.195312 94.804688 125.507812 C 121.8125 126 153.964844 126.585938 171.601562 142.792969 C 171.992188 143.15625 172.019531 143.773438 171.65625 144.171875 C 171.292969 144.566406 170.675781 144.589844 170.28125 144.226562 C 153.191406 128.515625 121.441406 127.933594 94.773438 127.449219 C 77.46875 127.132812 62.273438 126.855469 54.238281 122.507812 " fill-opacity="1" fill-rule="evenodd"/><path fill="#4f1f15" d="M 57.082031 130.929688 C 56.609375 130.675781 56.429688 130.085938 56.683594 129.613281 C 56.9375 129.140625 57.53125 128.960938 58 129.214844 C 65.632812 133.34375 80.601562 133.617188 97.644531 133.929688 C 124.65625 134.421875 156.808594 135.007812 174.441406 151.21875 C 174.835938 151.578125 174.863281 152.195312 174.496094 152.59375 C 174.136719 152.984375 173.519531 153.011719 173.121094 152.652344 C 156.03125 136.9375 124.285156 136.355469 97.613281 135.875 C 80.316406 135.558594 65.117188 135.277344 57.082031 130.929688 " fill-opacity="1" fill-rule="evenodd"/><path fill="#4f1f15" d="M 58.648438 138.613281 C 58.175781 138.359375 57.996094 137.765625 58.253906 137.296875 C 58.507812 136.824219 59.097656 136.644531 59.570312 136.898438 C 67.199219 141.027344 82.171875 141.300781 99.210938 141.613281 C 126.222656 142.105469 158.375 142.691406 176.007812 158.898438 C 176.40625 159.261719 176.433594 159.878906 176.066406 160.273438 C 175.703125 160.667969 175.085938 160.695312 174.691406 160.335938 C 157.597656 144.621094 125.855469 144.039062 99.179688 143.558594 C 81.882812 143.242188 66.6875 142.960938 58.648438 138.613281 " fill-opacity="1" fill-rule="evenodd"/><path fill="#4f1f15" d="M 60.875 146.558594 C 60.402344 146.308594 60.226562 145.714844 60.476562 145.242188 C 60.730469 144.769531 61.320312 144.589844 61.796875 144.84375 C 69.429688 148.976562 84.394531 149.246094 101.441406 149.558594 C 128.453125 150.050781 160.597656 150.636719 178.238281 166.847656 C 178.628906 167.214844 178.65625 167.828125 178.292969 168.222656 C 177.929688 168.621094 177.3125 168.644531 176.917969 168.28125 C 159.824219 152.570312 128.078125 151.992188 101.410156 151.503906 C 84.105469 151.1875 68.910156 150.914062 60.875 146.558594 " fill-opacity="1" fill-rule="evenodd"/><path fill="#4f1f15" d="M 61.945312 152.289062 C 61.460938 152.054688 61.261719 151.472656 61.492188 150.988281 C 61.726562 150.503906 62.308594 150.304688 62.792969 150.535156 C 69.929688 153.976562 83.898438 154.921875 100.101562 156.011719 C 126.945312 157.820312 159.867188 160.039062 179.199219 174.835938 C 179.625 175.160156 179.710938 175.773438 179.382812 176.199219 C 179.058594 176.628906 178.445312 176.710938 178.019531 176.382812 C 159.15625 161.941406 126.554688 159.746094 99.972656 157.957031 C 83.566406 156.851562 69.429688 155.898438 61.945312 152.289062 " fill-opacity="1" fill-rule="evenodd"/><path fill="#4f1f15" d="M 64.660156 159.292969 C 64.144531 159.148438 63.84375 158.613281 63.988281 158.09375 C 64.132812 157.574219 64.667969 157.273438 65.1875 157.417969 C 79.613281 161.5 95.375 163.152344 111.386719 164.828125 C 134.824219 167.28125 158.792969 169.792969 180.121094 180.042969 C 180.605469 180.273438 180.8125 180.855469 180.578125 181.339844 C 180.347656 181.820312 179.765625 182.027344 179.285156 181.796875 C 158.265625 171.695312 134.464844 169.203125 111.1875 166.765625 C 95.085938 165.078125 79.238281 163.417969 64.660156 159.292969 " fill-opacity="1" fill-rule="evenodd"/><path fill="#4f1f15" d="M 66.71875 165.707031 C 66.226562 165.488281 66.007812 164.910156 66.230469 164.417969 C 66.449219 163.929688 67.027344 163.710938 67.515625 163.933594 C 80.53125 169.855469 100.019531 171.921875 119.914062 174.03125 C 142.644531 176.445312 165.90625 178.914062 181.023438 187.261719 C 181.496094 187.519531 181.667969 188.109375 181.410156 188.582031 C 181.148438 189.054688 180.558594 189.226562 180.085938 188.96875 C 165.304688 180.804688 142.25 178.359375 119.714844 175.96875 C 99.65625 173.839844 80.007812 171.757812 66.71875 165.707031 " fill-opacity="1" fill-rule="evenodd"/><path fill="#4f1f15" d="M 68.84375 173.480469 C 68.355469 173.261719 68.132812 172.683594 68.355469 172.191406 C 68.574219 171.703125 69.152344 171.484375 69.640625 171.703125 C 82.65625 177.625 102.148438 179.695312 122.042969 181.808594 C 144.773438 184.214844 168.03125 186.683594 183.152344 195.03125 C 183.621094 195.296875 183.792969 195.886719 183.53125 196.359375 C 183.277344 196.828125 182.683594 197.003906 182.214844 196.742188 C 167.433594 188.578125 144.378906 186.132812 121.84375 183.738281 C 101.78125 181.613281 82.132812 179.527344 68.84375 173.480469 " fill-opacity="1" fill-rule="evenodd"/><path fill="#4f1f15" d="M 71.035156 181.285156 C 70.546875 181.066406 70.328125 180.488281 70.546875 179.996094 C 70.769531 179.507812 71.347656 179.292969 71.835938 179.507812 C 84.847656 185.429688 104.339844 187.5 124.234375 189.613281 C 146.96875 192.019531 170.226562 194.492188 185.34375 202.835938 C 185.8125 203.101562 185.984375 203.691406 185.726562 204.164062 C 185.472656 204.632812 184.878906 204.808594 184.410156 204.546875 C 169.628906 196.386719 146.570312 193.9375 124.039062 191.542969 C 103.976562 189.417969 84.328125 187.332031 71.035156 181.285156 " fill-opacity="1" fill-rule="evenodd"/><path fill="#4f1f15" d="M 186.027344 208.671875 C 186.527344 208.871094 186.773438 209.433594 186.578125 209.933594 C 186.382812 210.4375 185.816406 210.683594 185.320312 210.488281 C 168.511719 203.90625 147.957031 201.332031 127.371094 198.753906 C 108.921875 196.441406 90.445312 194.128906 74.492188 188.917969 C 73.980469 188.753906 73.699219 188.203125 73.867188 187.691406 C 74.03125 187.179688 74.585938 186.902344 75.09375 187.066406 C 90.863281 192.214844 109.246094 194.519531 127.605469 196.816406 C 148.3125 199.410156 168.988281 202 186.027344 208.671875 " fill-opacity="1" fill-rule="evenodd"/><path fill="#4f1f15" d="M 76.699219 196.242188 C 76.183594 196.082031 75.898438 195.535156 76.058594 195.019531 C 76.21875 194.507812 76.761719 194.21875 77.277344 194.378906 C 89.449219 198.1875 112.460938 201.703125 134.398438 205.054688 C 158.289062 208.703125 180.910156 212.160156 187.242188 215.683594 C 187.710938 215.945312 187.878906 216.535156 187.617188 217.003906 C 187.355469 217.472656 186.765625 217.644531 186.296875 217.382812 C 180.285156 214.039062 157.828125 210.605469 134.109375 206.984375 C 112.105469 203.621094 89.023438 200.097656 76.699219 196.242188 " fill-opacity="1" fill-rule="evenodd"/><path fill="#4f1f15" d="M 78.300781 203.316406 C 77.78125 203.167969 77.488281 202.632812 77.636719 202.113281 C 77.785156 201.597656 78.324219 201.300781 78.839844 201.449219 C 94.28125 205.976562 112.515625 208.722656 130.492188 211.429688 C 152.472656 214.742188 174.070312 217.992188 189.933594 224.410156 C 190.433594 224.613281 190.671875 225.179688 190.472656 225.675781 C 190.273438 226.175781 189.710938 226.417969 189.210938 226.214844 C 173.574219 219.886719 152.082031 216.648438 130.203125 213.355469 C 112.183594 210.648438 93.90625 207.894531 78.300781 203.316406 " fill-opacity="1" fill-rule="evenodd"/><path fill="#4f1f15" d="M 87.667969 239.617188 C 87.179688 239.386719 86.964844 238.808594 87.191406 238.320312 C 87.414062 237.832031 87.996094 237.621094 88.480469 237.84375 C 100.253906 243.308594 119.203125 245.425781 138.222656 247.542969 C 162.804688 250.289062 187.5 253.042969 197.691406 263.164062 C 198.070312 263.542969 198.070312 264.160156 197.695312 264.542969 C 197.3125 264.917969 196.699219 264.921875 196.320312 264.542969 C 186.617188 254.902344 162.253906 252.1875 138.007812 249.480469 C 118.832031 247.34375 99.726562 245.207031 87.667969 239.617188 " fill-opacity="1" fill-rule="evenodd"/><path fill="#4f1f15" d="M 86.082031 231.566406 C 85.597656 231.339844 85.382812 230.757812 85.605469 230.269531 C 85.832031 229.785156 86.410156 229.570312 86.898438 229.796875 C 98.671875 235.261719 117.617188 237.375 136.636719 239.496094 C 161.21875 242.238281 185.917969 244.996094 196.105469 255.113281 C 196.488281 255.496094 196.488281 256.113281 196.109375 256.492188 C 195.730469 256.871094 195.117188 256.875 194.734375 256.492188 C 185.035156 246.855469 160.667969 244.136719 136.425781 241.429688 C 117.25 239.292969 98.140625 237.160156 86.082031 231.566406 " fill-opacity="1" fill-rule="evenodd"/><path fill="#4f1f15" d="M 84.140625 223.644531 C 83.648438 223.421875 83.433594 222.84375 83.652344 222.351562 C 83.875 221.863281 84.449219 221.644531 84.941406 221.863281 C 96.71875 227.210938 115.660156 229.136719 134.675781 231.066406 C 159.261719 233.5625 183.964844 236.074219 194.152344 246.097656 C 194.535156 246.472656 194.542969 247.089844 194.164062 247.472656 C 193.789062 247.855469 193.171875 247.859375 192.789062 247.484375 C 183.085938 237.945312 158.730469 235.464844 134.488281 233.003906 C 115.308594 231.054688 96.195312 229.117188 84.140625 223.644531 " fill-opacity="1" fill-rule="evenodd"/><path fill="#4f1f15" d="M 82.28125 217.46875 C 81.792969 217.253906 81.566406 216.683594 81.78125 216.1875 C 81.992188 215.695312 82.570312 215.472656 83.058594 215.683594 C 94.824219 220.859375 113.777344 222.511719 132.800781 224.171875 C 157.382812 226.320312 182.082031 228.476562 192.28125 238.359375 C 192.664062 238.730469 192.671875 239.347656 192.296875 239.734375 C 191.925781 240.117188 191.308594 240.128906 190.925781 239.75 C 181.230469 230.359375 156.871094 228.230469 132.632812 226.117188 C 113.457031 224.445312 94.351562 222.777344 82.28125 217.46875 " fill-opacity="1" fill-rule="evenodd"/><path fill="#4f1f15" d="M 79.847656 210.152344 C 79.355469 209.9375 79.128906 209.367188 79.34375 208.871094 C 79.558594 208.378906 80.132812 208.15625 80.621094 208.367188 C 93.039062 213.828125 112.734375 216.042969 132.472656 218.269531 C 155.621094 220.875 178.839844 223.492188 190.917969 231.40625 C 191.367188 231.703125 191.492188 232.304688 191.199219 232.757812 C 190.90625 233.207031 190.300781 233.335938 189.851562 233.039062 C 178.15625 225.375 155.175781 222.785156 132.257812 220.207031 C 112.371094 217.964844 92.535156 215.730469 79.847656 210.152344 " fill-opacity="1" fill-rule="evenodd"/><path fill="#4f1f15" d="M 186.132812 118.914062 C 185.796875 119.332031 185.1875 119.402344 184.765625 119.0625 C 184.351562 118.726562 184.285156 118.113281 184.621094 117.695312 C 197.386719 101.75 225.105469 88.796875 248.519531 77.859375 C 266.246094 69.570312 281.480469 62.453125 285.496094 56.300781 C 285.789062 55.847656 286.390625 55.722656 286.839844 56.015625 C 287.289062 56.304688 287.417969 56.90625 287.125 57.359375 C 282.808594 63.976562 267.34375 71.207031 249.339844 79.617188 C 226.113281 90.46875 198.621094 103.316406 186.132812 118.914062 " fill-opacity="1" fill-rule="evenodd"/><path fill="#4f1f15" d="M 188.40625 126.480469 C 188.070312 126.898438 187.457031 126.960938 187.039062 126.628906 C 186.621094 126.289062 186.554688 125.679688 186.894531 125.257812 C 199.660156 109.3125 227.378906 96.359375 250.789062 85.417969 C 268.519531 77.132812 283.753906 70.015625 287.769531 63.863281 C 288.058594 63.414062 288.664062 63.285156 289.113281 63.578125 C 289.5625 63.867188 289.6875 64.472656 289.398438 64.921875 C 285.082031 71.542969 269.613281 78.769531 251.609375 87.179688 C 228.386719 98.03125 200.894531 110.878906 188.40625 126.480469 " fill-opacity="1" fill-rule="evenodd"/><path fill="#4f1f15" d="M 192.296875 133.914062 C 191.964844 134.328125 191.351562 134.398438 190.929688 134.058594 C 190.511719 133.722656 190.449219 133.109375 190.78125 132.695312 C 203.546875 116.75 231.265625 103.792969 254.679688 92.855469 C 272.410156 84.570312 287.648438 77.449219 291.65625 71.296875 C 291.949219 70.84375 292.550781 70.71875 293 71.011719 C 293.453125 71.300781 293.578125 71.910156 293.285156 72.359375 C 288.972656 78.976562 273.503906 86.203125 255.503906 94.617188 C 232.277344 105.46875 204.785156 118.316406 192.296875 133.914062 " fill-opacity="1" fill-rule="evenodd"/><path fill="#4f1f15" d="M 194.96875 143.269531 C 194.628906 143.691406 194.019531 143.757812 193.601562 143.417969 C 193.183594 143.085938 193.117188 142.46875 193.453125 142.050781 C 206.214844 126.105469 233.933594 113.152344 257.347656 102.210938 C 275.082031 93.929688 290.3125 86.8125 294.324219 80.65625 C 294.617188 80.207031 295.21875 80.078125 295.667969 80.371094 C 296.117188 80.664062 296.25 81.265625 295.953125 81.714844 C 291.640625 88.335938 276.175781 95.5625 258.171875 103.972656 C 234.949219 114.824219 207.453125 127.671875 194.96875 143.269531 " fill-opacity="1" fill-rule="evenodd"/><path fill="#4f1f15" d="M 198.136719 152.191406 C 197.804688 152.613281 197.191406 152.683594 196.769531 152.351562 C 196.347656 152.019531 196.273438 151.40625 196.605469 150.984375 C 209.359375 134.734375 237.082031 121.113281 260.492188 109.601562 C 278.226562 100.890625 293.460938 93.398438 297.480469 87.136719 C 297.769531 86.683594 298.371094 86.550781 298.824219 86.84375 C 299.277344 87.132812 299.410156 87.738281 299.117188 88.191406 C 294.808594 94.902344 279.347656 102.5 261.347656 111.351562 C 238.125 122.765625 210.625 136.28125 198.136719 152.191406 " fill-opacity="1" fill-rule="evenodd"/><path fill="#4f1f15" d="M 199.832031 161.832031 C 199.496094 162.25 198.886719 162.316406 198.46875 161.980469 C 198.046875 161.640625 197.980469 161.03125 198.320312 160.613281 C 211.316406 144.359375 239.550781 130.738281 263.398438 119.238281 C 281.46875 110.515625 297 103.027344 301.09375 96.765625 C 301.386719 96.3125 301.988281 96.1875 302.4375 96.484375 C 302.886719 96.777344 303.019531 97.378906 302.722656 97.832031 C 298.335938 104.542969 282.582031 112.144531 264.246094 120.992188 C 240.578125 132.40625 212.558594 145.921875 199.832031 161.832031 " fill-opacity="1" fill-rule="evenodd"/><path fill="#4f1f15" d="M 202.636719 169.273438 C 202.296875 169.691406 201.6875 169.753906 201.269531 169.421875 C 200.851562 169.085938 200.78125 168.472656 201.121094 168.050781 C 214.121094 151.800781 242.355469 138.179688 266.203125 126.675781 C 284.273438 117.957031 299.800781 110.46875 303.898438 104.207031 C 304.191406 103.75 304.792969 103.625 305.242188 103.921875 C 305.691406 104.214844 305.820312 104.820312 305.523438 105.273438 C 301.136719 111.984375 285.386719 119.582031 267.046875 128.429688 C 243.382812 139.84375 215.363281 153.363281 202.636719 169.273438 " fill-opacity="1" fill-rule="evenodd"/><path fill="#4f1f15" d="M 204.148438 179.472656 C 203.8125 179.894531 203.199219 179.957031 202.78125 179.625 C 202.367188 179.289062 202.296875 178.675781 202.632812 178.253906 C 215.945312 161.726562 244.863281 147.484375 269.285156 135.449219 C 287.804688 126.328125 303.71875 118.492188 307.917969 112.128906 C 308.214844 111.683594 308.816406 111.558594 309.265625 111.855469 C 309.714844 112.152344 309.835938 112.757812 309.539062 113.203125 C 305.050781 120.007812 288.921875 127.949219 270.144531 137.195312 C 245.898438 149.140625 217.1875 163.28125 204.148438 179.472656 " fill-opacity="1" fill-rule="evenodd"/><path fill="#4f1f15" d="M 206.433594 187.699219 C 206.097656 188.117188 205.484375 188.183594 205.066406 187.847656 C 204.648438 187.511719 204.582031 186.898438 204.917969 186.480469 C 218.230469 169.945312 247.144531 155.707031 271.570312 143.675781 C 290.085938 134.554688 306 126.71875 310.199219 120.355469 C 310.496094 119.902344 311.101562 119.78125 311.546875 120.078125 C 311.996094 120.375 312.117188 120.984375 311.820312 121.429688 C 307.332031 128.226562 291.203125 136.175781 272.429688 145.421875 C 248.179688 157.363281 219.472656 171.503906 206.433594 187.699219 " fill-opacity="1" fill-rule="evenodd"/><path fill="#4f1f15" d="M 208.839844 196.34375 C 208.503906 196.761719 207.890625 196.828125 207.472656 196.492188 C 207.054688 196.15625 206.988281 195.542969 207.324219 195.125 C 220.636719 178.589844 249.554688 164.347656 273.976562 152.320312 C 292.496094 143.199219 308.40625 135.359375 312.609375 128.996094 C 312.90625 128.546875 313.507812 128.425781 313.957031 128.722656 C 314.402344 129.019531 314.527344 129.621094 314.230469 130.074219 C 309.738281 136.871094 293.609375 144.820312 274.835938 154.066406 C 250.585938 166.007812 221.878906 180.148438 208.839844 196.34375 " fill-opacity="1" fill-rule="evenodd"/><path fill="#4f1f15" d="M 210.902344 205.863281 C 210.5625 206.277344 209.949219 206.335938 209.535156 205.996094 C 209.121094 205.65625 209.0625 205.042969 209.402344 204.628906 C 223.152344 187.9375 253.015625 173.347656 278.238281 161.023438 C 297.375 151.675781 313.820312 143.640625 318.160156 137.226562 C 318.460938 136.78125 319.0625 136.667969 319.507812 136.96875 C 319.949219 137.269531 320.070312 137.875 319.769531 138.316406 C 315.125 145.171875 298.476562 153.304688 279.089844 162.777344 C 254.035156 175.019531 224.375 189.507812 210.902344 205.863281 " fill-opacity="1" fill-rule="evenodd"/><path fill="#4f1f15" d="M 214.023438 215.929688 C 213.683594 216.34375 213.074219 216.402344 212.65625 216.0625 C 212.242188 215.71875 212.183594 215.105469 212.523438 214.695312 C 226.273438 198 256.136719 183.410156 281.359375 171.089844 C 300.496094 161.742188 316.9375 153.707031 321.28125 147.292969 C 321.582031 146.847656 322.1875 146.730469 322.628906 147.03125 C 323.074219 147.332031 323.191406 147.941406 322.886719 148.382812 C 318.25 155.234375 301.597656 163.371094 282.214844 172.84375 C 257.160156 185.085938 227.496094 199.574219 214.023438 215.929688 " fill-opacity="1" fill-rule="evenodd"/><path fill="#4f1f15" d="M 217.121094 226.40625 C 216.78125 226.820312 216.167969 226.886719 215.753906 226.546875 C 215.335938 226.207031 215.273438 225.59375 215.613281 225.179688 C 229.351562 208.234375 259.214844 193.082031 284.441406 180.28125 C 303.578125 170.566406 320.023438 162.222656 324.367188 155.71875 C 324.664062 155.273438 325.269531 155.152344 325.714844 155.453125 C 326.160156 155.75 326.277344 156.355469 325.980469 156.800781 C 321.351562 163.730469 304.699219 172.183594 285.316406 182.019531 C 260.261719 194.734375 230.601562 209.785156 217.121094 226.40625 " fill-opacity="1" fill-rule="evenodd"/><path fill="#4f1f15" d="M 218.804688 238.160156 C 218.46875 238.585938 217.859375 238.660156 217.4375 238.324219 C 217.015625 237.992188 216.941406 237.382812 217.273438 236.957031 C 231.003906 219.457031 260.859375 203.070312 286.082031 189.226562 C 305.226562 178.714844 321.679688 169.6875 326.03125 162.992188 C 326.324219 162.539062 326.925781 162.410156 327.375 162.703125 C 327.824219 162.996094 327.953125 163.597656 327.660156 164.050781 C 323.039062 171.160156 306.390625 180.296875 287.019531 190.933594 C 261.960938 204.691406 232.289062 220.972656 218.804688 238.160156 " fill-opacity="1" fill-rule="evenodd"/><path fill="#4f1f15" d="M 222.007812 249.921875 C 221.679688 250.351562 221.070312 250.433594 220.644531 250.109375 C 220.214844 249.78125 220.132812 249.171875 220.460938 248.742188 C 234.183594 230.726562 264.035156 213.191406 289.253906 198.382812 C 308.402344 187.136719 324.855469 177.46875 329.21875 170.585938 C 329.507812 170.132812 330.109375 170 330.5625 170.285156 C 331.019531 170.574219 331.152344 171.175781 330.867188 171.632812 C 326.253906 178.90625 309.609375 188.683594 290.234375 200.058594 C 265.171875 214.777344 235.503906 232.207031 222.007812 249.921875 " fill-opacity="1" fill-rule="evenodd"/><path fill="#4f1f15" d="M 225.070312 261.734375 C 224.75 262.167969 224.140625 262.261719 223.710938 261.941406 C 223.277344 261.625 223.183594 261.015625 223.503906 260.582031 C 237.21875 241.878906 267.0625 222.835938 292.277344 206.75 C 311.433594 194.523438 327.890625 184.023438 332.265625 176.902344 C 332.546875 176.445312 333.148438 176.300781 333.605469 176.582031 C 334.0625 176.863281 334.207031 177.464844 333.925781 177.921875 C 329.320312 185.417969 312.6875 196.03125 293.320312 208.390625 C 268.25 224.382812 238.574219 243.320312 225.070312 261.734375 " fill-opacity="1" fill-rule="evenodd"/></svg>